<?xml version="1.0" encoding="UTF-8" standalone="no"?>
<!-- Created with Inkscape (http://www.inkscape.org/) -->

<svg
   width="2330"
   height="444"
   viewBox="0 0 616.47918 117.475"
   version="1.1"
   id="svg725"
   inkscape:version="1.2.2 (732a01da63, 2022-12-09)"
   sodipodi:docname="toocrowdedhackplace2.svg"
   xmlns:inkscape="http://www.inkscape.org/namespaces/inkscape"
   xmlns:sodipodi="http://sodipodi.sourceforge.net/DTD/sodipodi-0.dtd"
   xmlns="http://www.w3.org/2000/svg"
   xmlns:svg="http://www.w3.org/2000/svg">
  <sodipodi:namedview
     id="namedview727"
     pagecolor="#ffffff"
     bordercolor="#000000"
     borderopacity="0.25"
     inkscape:showpageshadow="2"
     inkscape:pageopacity="0.0"
     inkscape:pagecheckerboard="0"
     inkscape:deskcolor="#d1d1d1"
     inkscape:document-units="px"
     showgrid="false"
     inkscape:zoom="0.5"
     inkscape:cx="1398"
     inkscape:cy="472"
     inkscape:window-width="1920"
     inkscape:window-height="1046"
     inkscape:window-x="-11"
     inkscape:window-y="-11"
     inkscape:window-maximized="1"
     inkscape:current-layer="layer1" />
  <defs
     id="defs722" />
  <g
     inkscape:label="Layer 1"
     inkscape:groupmode="layer"
     id="layer1">
    <path
       id="text121"
       style="font-style:normal;font-variant:normal;font-weight:normal;font-stretch:normal;font-size:105.833px;font-family:Satoshi;-inkscape-font-specification:Satoshi;white-space:pre;inline-size:71.3551;fill:#000000;stroke-width:0.264583"
       d="m 0.00654476,17.774407 v 72.965542 h 0.004 l 16.25120424,-4.091712 0.0429,0.0109 v -24.91734 c 0,-0.60871 0.0358,-1.19713 0.10542,-1.76424 v -24.53963 h 5.1e-4 V 17.774407 Z M 32.603519,36.129867 c -5.54805,0 -10.54514,1.72159 -13.99243,4.77491 v 13.61364 c 1.84148,-2.27299 4.70191,-3.57188 8.27702,-3.57188 5.60912,0 9.31364,4.33963 9.31364,11.00708 v 24.70547 l 0.0491,-0.0124 16.24914,4.093272 V 58.037577 c 0,-13.86407 -7.30238,-21.90771 -19.89646,-21.90771 z" />
    <rect
       style="fill:#000000;stroke-width:0.277122"
       id="rect753"
       width="3.1805072"
       height="32.736172"
       x="6.5830922"
       y="80.208855" />
    <rect
       style="fill:#000000;stroke-width:0.151742"
       id="rect753-8"
       width="3.1805072"
       height="9.8151722"
       x="6.64364"
       y="12.661608" />
    <rect
       style="fill:#000000;stroke-width:0.21817"
       id="rect753-2"
       width="3.1805072"
       height="20.289495"
       x="42.759254"
       y="79.908623" />
    <rect
       style="fill:#000000;stroke-width:0.166376"
       id="rect753-2-6"
       width="3.1805072"
       height="11.799547"
       x="97.017914"
       y="-54.552021"
       transform="rotate(89.997872)" />
    <path
       id="path821"
       style="fill:#000000;stroke-width:0.264583"
       d="M 8.3001002,0.0075429 A 7.1437497,6.9783854 0 0 0 1.1563541,6.9859189 7.1437497,6.9783854 0 0 0 8.3001002,13.964307 7.1437497,6.9783854 0 0 0 15.443849,6.9859189 7.1437497,6.9783854 0 0 0 8.3001002,0.0075429 Z m 0.001,2.0014187 A 5.1559324,4.9905686 0 0 1 13.457369,6.9998689 5.1559324,4.9905686 0 0 1 8.3011002,11.990267 5.1559324,4.9905686 0 0 1 3.1453429,6.9998689 5.1559324,4.9905686 0 0 1 8.3011002,2.0089616 Z" />
    <ellipse
       style="fill:#000000;stroke-width:0.264583"
       id="path821-4"
       cx="8.1015844"
       cy="110.17609"
       rx="7.1437497"
       ry="6.9783854" />
    <ellipse
       style="fill:#000000;stroke-width:0.264583"
       id="path821-4-9"
       cx="58.769295"
       cy="98.234032"
       rx="7.1437497"
       ry="6.9783854" />
    <path
       id="text121-9"
       style="font-style:normal;font-variant:normal;font-weight:normal;font-stretch:normal;font-size:105.833px;font-family:Satoshi;-inkscape-font-specification:Satoshi;white-space:pre;inline-size:71.3551;fill:#000000;fill-opacity:1;stroke-width:0.264583"
       d="m 0.00612776,17.773406 v 72.965541 h 0.004 l 16.25120424,-4.091711 0.0429,0.0109 v -24.91734 c 0,-0.60871 0.0358,-1.19713 0.10542,-1.76424 v -24.53963 h 5.1e-4 V 17.773406 Z M 32.603102,36.128866 c -5.54805,0 -10.54514,1.72159 -13.99243,4.77491 v 13.61364 c 1.84148,-2.27299 4.70191,-3.57188 8.27702,-3.57188 5.60912,0 9.31364,4.33963 9.31364,11.00708 v 24.70547 l 0.0491,-0.0124 16.24914,4.093271 V 58.036576 c 0,-13.86407 -7.30238,-21.90771 -19.89646,-21.90771 z" />
    <rect
       style="fill:#000000;fill-opacity:1;stroke-width:0.277122"
       id="rect753-5"
       width="3.1805072"
       height="32.736172"
       x="6.5826735"
       y="80.207855" />
    <rect
       style="fill:#000000;fill-opacity:1;stroke-width:0.151742"
       id="rect753-8-3"
       width="3.1805072"
       height="9.8151722"
       x="6.6432214"
       y="12.660604" />
    <rect
       style="fill:#000000;fill-opacity:1;stroke-width:0.21817"
       id="rect753-2-4"
       width="3.1805072"
       height="20.289495"
       x="42.758835"
       y="79.907623" />
    <rect
       style="fill:#000000;fill-opacity:1;stroke-width:0.166376"
       id="rect753-2-6-0"
       width="3.1805072"
       height="11.799547"
       x="97.016884"
       y="-54.551601"
       transform="rotate(89.997872)" />
    <path
       id="path821-95"
       style="fill:#000000;fill-opacity:1;stroke-width:0.264583"
       d="M 8.2996832,0.00654 A 7.1437497,6.9783854 0 0 0 1.1559371,6.9849179 7.1437497,6.9783854 0 0 0 8.2996832,13.963306 7.1437497,6.9783854 0 0 0 15.443432,6.9849179 7.1437497,6.9783854 0 0 0 8.2996832,0.00654 Z m 10e-4,2.0014199 A 5.1559324,4.9905686 0 0 1 13.456952,6.9988679 5.1559324,4.9905686 0 0 1 8.3006832,11.989266 5.1559324,4.9905686 0 0 1 3.1449259,6.9988679 5.1559324,4.9905686 0 0 1 8.3006832,2.0079599 Z" />
    <path
       id="path821-6"
       style="fill:#000000;fill-opacity:1;stroke-width:0.264583"
       d="m 320.77368,17.145506 a 7.1437497,6.9783854 0 0 0 -7.14375,6.97838 7.1437497,6.9783854 0 0 0 7.14375,6.97839 7.1437497,6.9783854 0 0 0 7.14375,-6.97839 7.1437497,6.9783854 0 0 0 -7.14375,-6.97838 z m 10e-4,2.00142 a 5.1559324,4.9905686 0 0 1 5.15627,4.99091 5.1559324,4.9905686 0 0 1 -5.15627,4.9904 5.1559324,4.9905686 0 0 1 -5.15576,-4.9904 5.1559324,4.9905686 0 0 1 5.15576,-4.99091 z" />
    <ellipse
       style="fill:#000000;fill-opacity:1;stroke-width:0.264583"
       id="path821-4-78"
       cx="8.1011696"
       cy="110.17512"
       rx="7.1437497"
       ry="6.9783854" />
    <ellipse
       style="fill:#000000;fill-opacity:1;stroke-width:0.264583"
       id="path821-4-9-1"
       cx="58.768875"
       cy="98.233025"
       rx="7.1437497"
       ry="6.9783854" />
    <ellipse
       style="fill:#000000;fill-opacity:1;stroke-width:0.264583"
       id="path821-4-9-0"
       cx="84.543541"
       cy="105.62125"
       rx="7.1437497"
       ry="6.9783854" />
    <path
       style="font-style:normal;font-variant:normal;font-weight:normal;font-stretch:normal;font-size:105.833px;font-family:Satoshi;-inkscape-font-specification:Satoshi;fill:#000000;fill-opacity:1;stroke-width:0.264583"
       d="m 254.88312,72.866656 c -5.36805,0.0337 -9.67331,4.35999 -9.67331,9.63094 0,5.18578 4.3394,9.524981 9.73688,9.524981 5.18576,0 9.73635,-4.339201 9.73635,-9.524981 0,-5.29162 -4.55059,-9.63094 -9.73635,-9.63094 -0.0211,0 -0.0425,-1.3e-4 -0.0636,0 z"
       id="path14049" />
    <path
       style="font-style:normal;font-variant:normal;font-weight:normal;font-stretch:normal;font-size:105.833px;font-family:Satoshi;-inkscape-font-specification:Satoshi;fill:#000000;fill-opacity:1;stroke-width:0.264583"
       d="m 517.83555,36.036866 c -15.98072,0 -27.09344,11.53598 -27.09344,28.04583 0,16.29818 11.43007,27.939881 27.41073,27.939881 14.49906,0 24.97657,-7.514461 26.88157,-19.261861 h -14.92209 c -1.16416,3.80997 -5.50336,6.03271 -11.64167,6.03271 -7.19658,0 -11.11245,-3.2811 -12.06489,-10.26604 l 38.41729,-0.21187 v -4.1274 c 0,-17.25067 -10.37184,-28.15125 -26.9875,-28.15125 z m 0.10594,13.22916 c 6.56158,0 10.68927,3.59807 10.68927,9.20719 h -22.01365 c 1.27,-6.34994 4.86857,-9.20719 11.32438,-9.20719 z"
       id="path14047" />
    <path
       style="font-style:normal;font-variant:normal;font-weight:normal;font-stretch:normal;font-size:105.833px;font-family:Satoshi;-inkscape-font-specification:Satoshi;fill:#000000;fill-opacity:1;stroke-width:0.264583"
       d="m 457.61649,36.036866 c -15.87489,0 -27.09292,11.64171 -27.09292,27.93989 0,16.93318 10.7946,28.045821 27.51615,28.045821 14.8165,0 25.61187,-9.101981 26.6702,-22.436861 h -16.40416 c -1.05833,5.18579 -4.55112,7.83157 -10.26604,7.83157 -6.98498,0 -11.1125,-4.97394 -11.1125,-13.44053 0,-8.14909 4.44528,-13.3351 11.32437,-13.3351 5.60909,0 8.89,2.53994 10.05417,7.83156 h 16.40416 c -1.05833,-13.86404 -11.43027,-22.43635 -27.09343,-22.43635 z"
       id="path14045" />
    <path
       style="font-style:normal;font-variant:normal;font-weight:normal;font-stretch:normal;font-size:105.833px;font-family:Satoshi;-inkscape-font-specification:Satoshi;fill:#000000;fill-opacity:1;stroke-width:0.264583"
       d="m 397.53798,36.036866 c -15.03364,0.0609 -24.79952,7.87818 -24.79952,19.79052 h 13.54698 c 0,-4.76246 3.70424,-7.40833 10.58333,-7.40833 5.82081,0 8.99532,2.75171 8.99532,7.9375 v 0.84697 l -14.81615,1.16376 c -12.6999,0.95249 -19.57917,6.9854 -19.57917,16.72197 0,10.37157 6.98479,16.933321 18.20303,16.933321 7.93741,0 14.92271,-3.492941 16.61604,-8.361231 l 0.48627,3.20962 14.96498,3.773931 V 59.743426 c 0,-15.13402 -8.67814,-23.70656 -24.02386,-23.70656 -0.0591,0 -0.11829,-2.4e-4 -0.17725,0 z m 8.43205,31.96135 v 2.85771 c 0,6.03244 -4.3392,9.10125 -10.58334,9.10125 -4.97409,0 -7.30239,-1.79899 -7.30239,-5.60896 0,-3.38663 2.54018,-4.97396 9.63093,-5.60896 z"
       id="path14043" />
    <path
       style="font-style:normal;font-variant:normal;font-weight:normal;font-stretch:normal;font-size:105.833px;font-family:Satoshi;-inkscape-font-specification:Satoshi;fill:#000000;fill-opacity:1;stroke-width:0.264583"
       d="m 310.72054,36.036866 c -7.51408,0 -14.18193,3.28057 -17.1452,8.14885 l -0.84646,-6.45593 H 277.38304 V 116.0464 h 0.0119 l 16.24345,-4.09536 0.0429,0.0109 V 85.354786 c 3.06916,4.021651 9.84279,6.773211 17.14521,6.773211 15.769,0 24.87083,-12.064821 24.87083,-28.786341 0,-17.03901 -10.26605,-27.30479 -24.97677,-27.30479 z m -4.11086,14.92208 c 0.0297,-1.6e-4 0.0596,0 0.0894,0 7.72575,0 12.59407,5.39758 12.59407,13.22917 0,7.8316 -4.86832,13.22917 -12.59407,13.22917 -7.61992,0 -12.91187,-5.29174 -12.91187,-13.22917 0,-7.90642 5.25048,-13.18803 12.82247,-13.22917 z"
       id="path14041" />
    <path
       style="font-style:normal;font-variant:normal;font-weight:normal;font-stretch:normal;font-size:105.833px;font-family:Satoshi;-inkscape-font-specification:Satoshi;fill:#000000;fill-opacity:1;stroke-width:0.264583"
       d="m 148.26689,36.036866 c -15.87483,0 -27.09343,11.64171 -27.09343,27.93989 0,16.93318 10.79517,28.045821 27.51666,28.045821 14.81656,0 25.61136,-9.101981 26.66969,-22.436861 h -16.40416 c -1.05833,5.18579 -4.55055,7.83157 -10.26553,7.83157 -6.98492,0 -11.1125,-4.97394 -11.1125,-13.44053 0,-8.14909 4.44477,-13.3351 11.32386,-13.3351 5.60909,0 8.89,2.53994 10.05417,7.83156 h 16.40416 c -1.05833,-13.86404 -11.4297,-22.43635 -27.09292,-22.43635 z"
       id="path14039" />
    <path
       style="font-style:normal;font-variant:normal;font-weight:normal;font-stretch:normal;font-size:105.833px;font-family:Satoshi;-inkscape-font-specification:Satoshi;fill:#000000;fill-opacity:1;stroke-width:0.264583"
       d="m 88.188459,36.036866 c -15.033624,0.0609 -24.799474,7.87818 -24.799474,19.79052 h 13.546467 c 0,-4.76246 3.704229,-7.40833 10.58328,-7.40833 5.820777,0 8.995789,2.75171 8.995789,7.9375 v 0.84697 l -14.816586,1.16376 c -12.69988,0.95249 -19.57916,6.9854 -19.57916,16.72197 0,10.37157 6.98532,16.933321 18.203539,16.933321 7.937375,0 14.922113,-3.492941 16.615434,-8.361231 l 0.483167,3.18792 14.968585,3.774951 V 59.743426 c 0,-15.13402 -8.67866,-23.70656 -24.024314,-23.70656 -0.0591,0 -0.117777,-2.4e-4 -0.176727,0 z m 8.431992,31.96135 v 2.85771 c 0,6.03244 -4.339216,9.10125 -10.58327,9.10125 -4.974123,0 -7.302358,-1.79899 -7.302358,-5.60896 0,-3.38663 2.539655,-4.97396 9.630363,-5.60896 z"
       id="path14037" />
    <path
       style="font-style:normal;font-variant:normal;font-weight:normal;font-stretch:normal;font-size:105.833px;font-family:Satoshi;-inkscape-font-specification:Satoshi;fill:#000000;fill-opacity:1;stroke-width:0.264583"
       d="m 345.11638,10.848216 v 75.71425 l 0.0527,-0.0135 16.24552,4.096911 V 10.848166 Z"
       id="path14035" />
    <path
       style="font-style:normal;font-variant:normal;font-weight:normal;font-stretch:normal;font-size:105.833px;font-family:Satoshi;-inkscape-font-specification:Satoshi;fill:#000000;fill-opacity:1;stroke-width:0.264583"
       d="M 571.91649,6.8267579 C 558.79326,20.479136 552.54868,40.799126 552.54868,59.954786 c 0,21.69563 7.72624,41.063584 19.36781,53.128484 h 12.48812 c -10.4774,-14.075729 -15.34583,-34.290324 -15.34583,-53.128484 0,-21.37814 6.13842,-40.74564 15.34583,-53.1280281 z m 12.48812,0 c 9.20741,12.3823881 15.34584,31.7498881 15.34584,53.1280281 0,18.83816 -4.86843,39.052755 -15.34584,53.128484 h 12.48813 c 11.64157,-12.0649 19.36781,-31.432854 19.36781,-53.128484 0,-19.15566 -6.24458,-39.47565 -19.36781,-53.1280281 z"
       id="text1080" />
    <rect
       style="fill:#000000;fill-opacity:1;stroke-width:0.21817"
       id="rect753-2-2"
       width="3.1805072"
       height="20.289495"
       x="-106.91658"
       y="85.301659"
       transform="rotate(-90.000903)" />
    <rect
       style="fill:#000000;fill-opacity:1;stroke-width:0.247696"
       id="rect753-2-6-8"
       width="3.1805072"
       height="26.152988"
       x="102.40875"
       y="80.777206"
       transform="matrix(0.99999999,-1.172676e-4,2.387075e-5,1,0,0)" />
    <ellipse
       style="fill:#000000;fill-opacity:1;stroke-width:0.264583"
       id="path821-4-9-0-1"
       cx="315.23315"
       cy="102.85645"
       rx="7.1437497"
       ry="6.9783854" />
    <rect
       style="fill:#000000;fill-opacity:1;stroke-width:0.294452"
       id="rect753-2-2-0"
       width="3.1805072"
       height="36.958202"
       x="-104.15293"
       y="316.78397"
       transform="matrix(-2.8708119e-5,-1,1,-8.6521792e-6,0,0)" />
    <rect
       style="fill:#000000;fill-opacity:1;stroke-width:0.247696"
       id="rect753-2-6-8-9"
       width="3.1805072"
       height="26.152988"
       x="352.1488"
       y="78.041763"
       transform="matrix(0.99999999,-1.172676e-4,2.387075e-5,1,0,0)" />
    <rect
       style="fill:#000000;fill-opacity:1;stroke-width:0.247696"
       id="rect753-2-6-8-5"
       width="3.1805072"
       height="26.152988"
       x="412.15884"
       y="81.940857"
       transform="matrix(0.99999999,-1.172676e-4,2.387075e-5,1,0,0)" />
    <rect
       style="fill:#000000;fill-opacity:1;stroke-width:0.271417"
       id="rect753-2-2-5-0"
       width="3.1805072"
       height="31.401842"
       x="22.571669"
       y="-314.96536"
       transform="matrix(-1.3657409e-4,0.99999999,-1,-5.7016501e-5,0,0)" />
    <rect
       style="fill:#000000;fill-opacity:1;stroke-width:0.247696"
       id="rect753-2-6-8-5-0"
       width="3.1805072"
       height="26.152988"
       x="-286.74353"
       y="-48.741726"
       transform="matrix(-1,1.3263543e-5,8.0133309e-5,-1,0,0)" />
    <ellipse
       style="fill:#000000;fill-opacity:1;stroke-width:0.264583"
       id="path821-4-9-0-6"
       cx="393.36786"
       cy="106.11797"
       rx="7.1437497"
       ry="6.9783854" />
    <rect
       style="fill:#000000;fill-opacity:1;stroke-width:0.21817"
       id="rect753-2-2-6"
       width="3.1805072"
       height="20.289495"
       x="-108.05334"
       y="395.05087"
       transform="rotate(-90.000903)" />
    <path
       id="text121-4"
       style="font-style:normal;font-variant:normal;font-weight:normal;font-stretch:normal;font-size:105.833px;font-family:Satoshi;-inkscape-font-specification:Satoshi;white-space:pre;inline-size:71.3551;fill:#000000;fill-opacity:1;stroke-width:0.264583"
       d="m 0.00613376,17.773316 v 72.965541 h 0.004 l 16.25120424,-4.091711 0.0429,0.0109 v -24.91734 c 0,-0.60871 0.0358,-1.19713 0.10542,-1.76424 v -24.53963 h 5.1e-4 V 17.773316 Z M 32.603108,36.128776 c -5.54805,0 -10.54514,1.72159 -13.99243,4.77491 v 13.61364 c 1.84148,-2.27299 4.70191,-3.57188 8.27702,-3.57188 5.60912,0 9.31364,4.33963 9.31364,11.00708 v 24.70547 l 0.0491,-0.0124 16.24914,4.093271 V 58.036486 c 0,-13.86407 -7.30238,-21.90771 -19.89646,-21.90771 z" />
    <rect
       style="fill:#000000;fill-opacity:1;stroke-width:0.277122"
       id="rect753-82"
       width="3.1805072"
       height="32.736172"
       x="6.5826735"
       y="80.207764" />
    <rect
       style="fill:#000000;fill-opacity:1;stroke-width:0.151742"
       id="rect753-8-15"
       width="3.1805072"
       height="9.8151722"
       x="6.6432214"
       y="12.660512" />
    <rect
       style="fill:#000000;fill-opacity:1;stroke-width:0.21817"
       id="rect753-2-7"
       width="3.1805072"
       height="20.289495"
       x="42.758842"
       y="79.907532" />
    <rect
       style="fill:#000000;fill-opacity:1;stroke-width:0.166376"
       id="rect753-2-6-9"
       width="3.1805072"
       height="11.799547"
       x="97.0168"
       y="-54.551609"
       transform="rotate(89.997872)" />
    <path
       id="path821-96"
       style="fill:#000000;fill-opacity:1;stroke-width:0.264583"
       d="M 8.2996892,0.00645 A 7.1437497,6.9783854 0 0 0 1.1559431,6.9848279 7.1437497,6.9783854 0 0 0 8.2996892,13.963216 7.1437497,6.9783854 0 0 0 15.443438,6.9848279 7.1437497,6.9783854 0 0 0 8.2996892,0.00645 Z m 0.001,2.0014199 A 5.1559324,4.9905686 0 0 1 13.456958,6.9987779 5.1559324,4.9905686 0 0 1 8.3006892,11.989176 5.1559324,4.9905686 0 0 1 3.1449319,6.9987779 5.1559324,4.9905686 0 0 1 8.3006892,2.0078699 Z" />
    <rect
       style="fill:#000000;fill-opacity:1;stroke-width:0.151742"
       id="rect753-8-1"
       width="3.1805072"
       height="9.8151722"
       x="190.79309"
       y="12.654075" />
    <path
       id="path821-9"
       style="fill:#000000;fill-opacity:1;stroke-width:0.264583"
       d="M 192.451,0 A 7.1437497,6.9783854 0 0 0 185.30721,6.9783779 7.1437497,6.9783854 0 0 0 192.451,13.956766 7.1437497,6.9783854 0 0 0 199.59479,6.9783779 7.1437497,6.9783854 0 0 0 192.451,0 Z m 0.001,2.0014199 a 5.1559324,4.9905686 0 0 1 5.1563,4.990908 5.1559324,4.9905686 0 0 1 -5.1563,4.9903981 5.1559324,4.9905686 0 0 1 -5.15579,-4.9903981 5.1559324,4.9905686 0 0 1 5.15579,-4.990908 z" />
    <path
       id="path821-9-3"
       style="fill:#000000;fill-opacity:1;stroke-width:0.264583"
       d="m 148.99244,57.278226 a 7.1437497,6.9783854 0 0 0 -7.14379,6.97838 7.1437497,6.9783854 0 0 0 7.14379,6.97839 7.1437497,6.9783854 0 0 0 7.14379,-6.97839 7.1437497,6.9783854 0 0 0 -7.14379,-6.97838 z m 0.001,2.00142 a 5.1559324,4.9905686 0 0 1 5.1563,4.99091 5.1559324,4.9905686 0 0 1 -5.1563,4.9904 5.1559324,4.9905686 0 0 1 -5.15579,-4.9904 5.1559324,4.9905686 0 0 1 5.15579,-4.99091 z" />
    <path
       id="path821-6-3"
       style="fill:#000000;fill-opacity:1;stroke-width:0.264583"
       d="m 320.77369,17.145426 a 7.1437497,6.9783854 0 0 0 -7.14375,6.97838 7.1437497,6.9783854 0 0 0 7.14375,6.97839 7.1437497,6.9783854 0 0 0 7.14375,-6.97839 7.1437497,6.9783854 0 0 0 -7.14375,-6.97838 z m 0.001,2.00142 a 5.1559324,4.9905686 0 0 1 5.15627,4.99091 5.1559324,4.9905686 0 0 1 -5.15627,4.9904 5.1559324,4.9905686 0 0 1 -5.15576,-4.9904 5.1559324,4.9905686 0 0 1 5.15576,-4.99091 z" />
    <ellipse
       style="fill:#000000;fill-opacity:1;stroke-width:0.264583"
       id="path821-4-7"
       cx="8.1011696"
       cy="110.17504"
       rx="7.1437497"
       ry="6.9783854" />
    <ellipse
       style="fill:#000000;fill-opacity:1;stroke-width:0.264583"
       id="path821-4-9-09"
       cx="58.768898"
       cy="98.232979"
       rx="7.1437497"
       ry="6.9783854" />
    <ellipse
       style="fill:#000000;fill-opacity:1;stroke-width:0.264583"
       id="path821-4-9-0-9"
       cx="84.543541"
       cy="105.62115"
       rx="7.1437497"
       ry="6.9783854" />
    <path
       style="font-style:normal;font-variant:normal;font-weight:normal;font-stretch:normal;font-size:105.833px;font-family:Satoshi;-inkscape-font-specification:Satoshi;fill:#000000;fill-opacity:1;stroke-width:0.264583"
       d="m 254.88313,72.866566 c -5.36805,0.0337 -9.67332,4.35999 -9.67332,9.63094 0,5.18578 4.33941,9.524981 9.73689,9.524981 5.18576,0 9.73635,-4.339201 9.73635,-9.524981 0,-5.29162 -4.55059,-9.63094 -9.73635,-9.63094 -0.0211,0 -0.0425,-1.3e-4 -0.0636,0 z"
       id="path1683" />
    <path
       style="font-style:normal;font-variant:normal;font-weight:normal;font-stretch:normal;font-size:105.833px;font-family:Satoshi;-inkscape-font-specification:Satoshi;fill:#000000;fill-opacity:1;stroke-width:0.264583"
       d="m 517.83556,36.036776 c -15.98072,0 -27.09344,11.53598 -27.09344,28.04583 0,16.29818 11.43007,27.939881 27.41073,27.939881 14.49906,0 24.97657,-7.514471 26.88157,-19.261861 h -14.92209 c -1.16416,3.80997 -5.50336,6.03271 -11.64167,6.03271 -7.19658,0 -11.11245,-3.28111 -12.06489,-10.26604 l 38.41729,-0.21187 v -4.1274 c 0,-17.25067 -10.37184,-28.15125 -26.9875,-28.15125 z m 0.10594,13.22917 c 6.56158,0 10.68927,3.59807 10.68927,9.20718 h -22.01365 c 1.27,-6.34994 4.86857,-9.20718 11.32438,-9.20718 z"
       id="path1681" />
    <path
       style="font-style:normal;font-variant:normal;font-weight:normal;font-stretch:normal;font-size:105.833px;font-family:Satoshi;-inkscape-font-specification:Satoshi;fill:#000000;fill-opacity:1;stroke-width:0.264583"
       d="m 457.6165,36.036776 c -15.87489,0 -27.09292,11.64171 -27.09292,27.93989 0,16.93318 10.7946,28.045821 27.51615,28.045821 14.8165,0 25.61187,-9.101981 26.6702,-22.436861 h -16.40416 c -1.05833,5.18579 -4.55112,7.83157 -10.26604,7.83157 -6.98498,0 -11.1125,-4.97394 -11.1125,-13.44053 0,-8.14909 4.44528,-13.3351 11.32437,-13.3351 5.60909,0 8.89,2.53994 10.05417,7.83156 h 16.40416 C 483.6516,44.609096 473.27966,36.036776 457.6165,36.036776 Z"
       id="path1679" />
    <path
       style="font-style:normal;font-variant:normal;font-weight:normal;font-stretch:normal;font-size:105.833px;font-family:Satoshi;-inkscape-font-specification:Satoshi;fill:#000000;fill-opacity:1;stroke-width:0.264583"
       d="m 397.53799,36.036776 c -15.03364,0.0609 -24.79952,7.87818 -24.79952,19.79052 h 13.54698 c 0,-4.76245 3.70424,-7.40833 10.58333,-7.40833 5.82081,0 8.99532,2.75171 8.99532,7.9375 v 0.84697 l -14.81615,1.16376 c -12.6999,0.95249 -19.57917,6.9854 -19.57917,16.72197 0,10.37157 6.98479,16.933321 18.20303,16.933321 7.93741,0 14.92271,-3.492941 16.61604,-8.361231 l 0.48627,3.20962 14.96498,3.773931 V 59.743336 c 0,-15.13402 -8.67814,-23.70656 -24.02386,-23.70656 -0.0591,0 -0.11829,-2.4e-4 -0.17725,0 z m 8.43205,31.96135 v 2.85771 c 0,6.03244 -4.3392,9.10125 -10.58334,9.10125 -4.97409,0 -7.30239,-1.79899 -7.30239,-5.60896 0,-3.38664 2.54018,-4.97397 9.63093,-5.60896 z"
       id="path1677" />
    <path
       style="font-style:normal;font-variant:normal;font-weight:normal;font-stretch:normal;font-size:105.833px;font-family:Satoshi;-inkscape-font-specification:Satoshi;fill:#000000;fill-opacity:1;stroke-width:0.264583"
       d="m 310.72055,36.036776 c -7.51408,0 -14.18193,3.28057 -17.1452,8.14886 l -0.84646,-6.45594 h -15.34584 v 78.316614 h 0.0119 l 16.24345,-4.09536 0.0429,0.0109 V 85.354696 c 3.06916,4.021651 9.84279,6.773211 17.14521,6.773211 15.769,0 24.87083,-12.064821 24.87083,-28.786341 0,-17.039 -10.26605,-27.30479 -24.97677,-27.30479 z m -4.11086,14.92209 c 0.0297,-1.7e-4 0.0596,0 0.0894,0 7.72575,0 12.59407,5.39756 12.59407,13.22916 0,7.8316 -4.86832,13.22917 -12.59407,13.22917 -7.61992,0 -12.91187,-5.29174 -12.91187,-13.22917 0,-7.90642 5.25048,-13.18803 12.82247,-13.22916 z"
       id="path1675" />
    <path
       style="font-style:normal;font-variant:normal;font-weight:normal;font-stretch:normal;font-size:105.833px;font-family:Satoshi;-inkscape-font-specification:Satoshi;fill:#000000;fill-opacity:1;stroke-width:0.264583"
       d="m 148.26689,36.036776 c -15.87483,0 -27.09343,11.64171 -27.09343,27.93989 0,16.93318 10.79517,28.045821 27.51666,28.045821 14.81656,0 25.61136,-9.101981 26.66969,-22.436861 h -16.40416 c -1.05833,5.18579 -4.55055,7.83157 -10.26553,7.83157 -6.98492,0 -11.1125,-4.97394 -11.1125,-13.44053 0,-8.14909 4.44477,-13.3351 11.32386,-13.3351 5.60909,0 8.89,2.53994 10.05417,7.83156 h 16.40416 c -1.05833,-13.86403 -11.4297,-22.43635 -27.09292,-22.43635 z"
       id="path1673" />
    <path
       style="font-style:normal;font-variant:normal;font-weight:normal;font-stretch:normal;font-size:105.833px;font-family:Satoshi;-inkscape-font-specification:Satoshi;fill:#000000;fill-opacity:1;stroke-width:0.264583"
       d="m 88.188469,36.036776 c -15.033624,0.0609 -24.799484,7.87818 -24.799484,19.79052 h 13.546477 c 0,-4.76245 3.704229,-7.40833 10.58328,-7.40833 5.820777,0 8.995789,2.75171 8.995789,7.9375 v 0.84697 l -14.816586,1.16376 c -12.69989,0.95249 -19.57917,6.9854 -19.57917,16.72197 0,10.37157 6.98533,16.933321 18.203549,16.933321 7.937375,0 14.922113,-3.492941 16.615434,-8.361231 l 0.483167,3.18792 14.968585,3.774951 V 59.743336 c 0,-15.13402 -8.67866,-23.70656 -24.024314,-23.70656 -0.0591,0 -0.117777,-2.4e-4 -0.176727,0 z m 8.431992,31.96135 v 2.85771 c 0,6.03244 -4.339216,9.10125 -10.58327,9.10125 -4.974123,0 -7.302358,-1.79899 -7.302358,-5.60896 0,-3.38664 2.539655,-4.97397 9.630363,-5.60896 z"
       id="path1671" />
    <path
       style="font-style:normal;font-variant:normal;font-weight:normal;font-stretch:normal;font-size:105.833px;font-family:Satoshi;-inkscape-font-specification:Satoshi;fill:#000000;fill-opacity:1;stroke-width:0.264583"
       d="m 345.11639,10.848136 v 75.71423 l 0.0527,-0.0134 16.24552,4.096911 V 10.848176 Z"
       id="path1669" />
    <path
       id="path1667"
       style="font-style:normal;font-variant:normal;font-weight:normal;font-stretch:normal;font-size:105.833px;font-family:Satoshi;-inkscape-font-specification:Satoshi;fill:#000000;fill-opacity:1;stroke-width:0.264583"
       d="m 184.24969,17.801716 v 72.844641 h 0.004 l 16.25638,-4.098971 0.0382,0.01 v -9.14001 l 6.24406,-6.56136 9.42681,15.73909 0.19431,-0.0377 21.01835,4.089161 h 0.0522 l -19.26188,-31.961361 19.89646,-20.95531 h -20.42562 l -17.14469,19.05 v -38.97796 z" />
    <rect
       style="fill:#000000;fill-opacity:1;stroke-width:0.21817"
       id="rect753-2-2-66"
       width="3.1805072"
       height="20.289495"
       x="-106.91653"
       y="85.301659"
       transform="rotate(-90.000903)" />
    <rect
       style="fill:#000000;fill-opacity:1;stroke-width:0.247696"
       id="rect753-2-6-8-3"
       width="3.1805072"
       height="26.152988"
       x="102.40877"
       y="80.777115"
       transform="matrix(0.99999999,-1.172676e-4,2.387075e-5,1,0,0)" />
    <rect
       style="fill:#000000;fill-opacity:1;stroke-width:0.156639"
       id="rect753-2-6-8-1"
       width="3.1805072"
       height="10.458889"
       x="147.35568"
       y="48.158409"
       transform="matrix(1,-4.689677e-5,5.8905313e-5,1,0,0)" />
    <rect
       style="fill:#000000;fill-opacity:1;stroke-width:0.165826"
       id="rect753-2-6-8-1-7"
       width="3.1805072"
       height="11.72172"
       x="147.36284"
       y="69.965919"
       transform="rotate(-0.00301142)" />
    <path
       id="path821-9-3-5"
       style="fill:#000000;fill-opacity:1;stroke-width:0.264583"
       d="m 458.07652,57.303036 a 7.1437497,6.9783854 0 0 0 -7.14379,6.97838 7.1437497,6.9783854 0 0 0 7.14379,6.97839 7.1437497,6.9783854 0 0 0 7.14379,-6.97839 7.1437497,6.9783854 0 0 0 -7.14379,-6.97838 z m 10e-4,2.00142 a 5.1559324,4.9905686 0 0 1 5.1563,4.99091 5.1559324,4.9905686 0 0 1 -5.1563,4.9904 5.1559324,4.9905686 0 0 1 -5.15579,-4.9904 5.1559324,4.9905686 0 0 1 5.15579,-4.99091 z" />
    <rect
       style="fill:#000000;fill-opacity:1;stroke-width:0.156639"
       id="rect753-2-6-8-1-4"
       width="3.1805072"
       height="10.458889"
       x="456.43954"
       y="48.198784"
       transform="matrix(1,-4.689677e-5,5.8905313e-5,1,0,0)" />
    <rect
       style="fill:#000000;fill-opacity:1;stroke-width:0.165826"
       id="rect753-2-6-8-1-7-2"
       width="3.1805072"
       height="11.72172"
       x="456.4469"
       y="70.008522"
       transform="rotate(-0.00301142)" />
    <ellipse
       style="fill:#000000;fill-opacity:1;stroke-width:0.264583"
       id="path821-4-9-0-1-0"
       cx="315.23315"
       cy="102.85638"
       rx="7.1437497"
       ry="6.9783854" />
    <rect
       style="fill:#000000;fill-opacity:1;stroke-width:0.294452"
       id="rect753-2-2-0-1"
       width="3.1805072"
       height="36.958202"
       x="-104.15277"
       y="316.78397"
       transform="matrix(-2.8708119e-5,-1,1,-8.6521792e-6,0,0)" />
    <rect
       style="fill:#000000;fill-opacity:1;stroke-width:0.247696"
       id="rect753-2-6-8-9-4"
       width="3.1805072"
       height="26.152988"
       x="352.1488"
       y="78.041672"
       transform="matrix(0.99999999,-1.172676e-4,2.387075e-5,1,0,0)" />
    <rect
       style="fill:#000000;fill-opacity:1;stroke-width:0.247696"
       id="rect753-2-6-8-5-2"
       width="3.1805072"
       height="26.152988"
       x="412.15884"
       y="81.940765"
       transform="matrix(0.99999999,-1.172676e-4,2.387075e-5,1,0,0)" />
    <rect
       style="fill:#000000;fill-opacity:1;stroke-width:0.271417"
       id="rect753-2-2-5-0-8"
       width="3.1805072"
       height="31.401842"
       x="22.571577"
       y="-314.96539"
       transform="matrix(-1.3657409e-4,0.99999999,-1,-5.7016501e-5,0,0)" />
    <rect
       style="fill:#000000;fill-opacity:1;stroke-width:0.247696"
       id="rect753-2-6-8-5-0-1"
       width="3.1805072"
       height="26.152988"
       x="-286.74353"
       y="-48.741634"
       transform="matrix(-1,1.3263543e-5,8.0133309e-5,-1,0,0)" />
    <ellipse
       style="fill:#000000;fill-opacity:1;stroke-width:0.264583"
       id="path821-4-9-0-6-7"
       cx="393.36786"
       cy="106.11785"
       rx="7.1437497"
       ry="6.9783854" />
    <rect
       style="fill:#000000;fill-opacity:1;stroke-width:0.21817"
       id="rect753-2-2-6-6"
       width="3.1805072"
       height="20.289495"
       x="-108.05325"
       y="395.05087"
       transform="rotate(-90.000903)" />
  </g>
</svg>
