<?xml version="1.0" encoding="UTF-8" standalone="no"?>
<!-- Created with Inkscape (http://www.inkscape.org/) -->

<svg
	width="500"
	height="500"
	viewBox="0 0 132.29166 132.29167"
	version="1.1"
	id="svg1613"
	inkscape:version="1.2.2 (732a01da63, 2022-12-09)"
	sodipodi:docname="hackplacesvgblue.svg"
	xmlns:inkscape="http://www.inkscape.org/namespaces/inkscape"
	xmlns:sodipodi="http://sodipodi.sourceforge.net/DTD/sodipodi-0.dtd"
	xmlns="http://www.w3.org/2000/svg"
	xmlns:svg="http://www.w3.org/2000/svg">
	<sodipodi:namedview
		id="namedview1615"
		pagecolor="#ffffff"
		bordercolor="#000000"
		borderopacity="0.25"
		inkscape:showpageshadow="2"
		inkscape:pageopacity="0.0"
		inkscape:pagecheckerboard="0"
		inkscape:deskcolor="#d1d1d1"
		inkscape:document-units="mm"
		showgrid="false"
		inkscape:zoom="0.70710678"
		inkscape:cx="774.98903"
		inkscape:cy="147.07821"
		inkscape:window-width="1920"
		inkscape:window-height="1046"
		inkscape:window-x="-11"
		inkscape:window-y="-11"
		inkscape:window-maximized="1"
		inkscape:current-layer="layer1" />
	<defs
		id="defs1610" />
	<g
		inkscape:label="Layer 1"
		inkscape:groupmode="layer"
		id="layer1">
		<path
			id="text121"
			style="font-style:normal;font-variant:normal;font-weight:normal;font-stretch:normal;font-size:105.833px;font-family:Satoshi;-inkscape-font-specification:Satoshi;white-space:pre;inline-size:71.3551;fill:#00aaff;stroke-width:0.264583;fill-opacity:1"
			d="m 36.208124,25.872836 v 72.965553 h 0.0041 l 16.251204,-4.09172 0.04289,0.01085 V 69.840178 c 0,-0.608707 0.0358,-1.197123 0.10542,-1.764233 V 43.536358 h 5.16e-4 V 25.872836 Z m 32.596977,18.355469 c -5.54805,0 -10.545137,1.721584 -13.992428,4.774902 v 13.61364 c 1.841474,-2.272984 4.701906,-3.571875 8.277014,-3.571875 5.60912,0 9.313644,4.339631 9.313644,11.00708 v 24.705469 l 0.04909,-0.0124 16.249137,4.093278 V 66.136012 c 0,-13.864068 -7.302378,-21.907707 -19.896459,-21.907707 z" />
		<rect
			style="fill:#00aaff;stroke-width:0.277122;fill-opacity:1"
			id="rect753"
			width="3.1805072"
			height="32.736172"
			x="42.784668"
			y="88.307289" />
		<rect
			style="fill:#00aaff;stroke-width:0.151742;fill-opacity:1"
			id="rect753-8"
			width="3.1805072"
			height="9.8151722"
			x="42.8452"
			y="20.76004" />
		<rect
			style="fill:#00aaff;stroke-width:0.21817;fill-opacity:1"
			id="rect753-2"
			width="3.1805072"
			height="20.289495"
			x="78.960846"
			y="88.007065" />
		<rect
			style="fill:#00aaff;stroke-width:0.166376;fill-opacity:1"
			id="rect753-2-6"
			width="3.1805072"
			height="11.799547"
			x="105.11789"
			y="-90.753288"
			transform="rotate(89.997872)" />
		<path
			id="path821"
			style="fill:#00aaff;stroke-width:0.264583;fill-opacity:1"
			d="M 44.501676 8.1059652 A 7.1437497 6.9783854 0 0 0 37.357926 15.084351 A 7.1437497 6.9783854 0 0 0 44.501676 22.062736 A 7.1437497 6.9783854 0 0 0 51.645426 15.084351 A 7.1437497 6.9783854 0 0 0 44.501676 8.1059652 z M 44.50271 10.107393 A 5.1559324 4.9905686 0 0 1 49.658984 15.098303 A 5.1559324 4.9905686 0 0 1 44.50271 20.088696 A 5.1559324 4.9905686 0 0 1 39.346952 15.098303 A 5.1559324 4.9905686 0 0 1 44.50271 10.107393 z " />
		<ellipse
			style="fill:#00aaff;stroke-width:0.264583;fill-opacity:1"
			id="path821-4"
			cx="44.303162"
			cy="118.27452"
			rx="7.1437497"
			ry="6.9783854" />
		<ellipse
			style="fill:#00aaff;stroke-width:0.264583;fill-opacity:1"
			id="path821-4-9"
			cx="94.970871"
			cy="106.33247"
			rx="7.1437497"
			ry="6.9783854" />
	</g>
</svg>
