<?xml version="1.0" encoding="UTF-8" standalone="no"?>
<!-- Created with Inkscape (http://www.inkscape.org/) -->

<svg
   width="2330"
   height="444"
   viewBox="0 0 616.47918 117.475"
   version="1.1"
   id="svg725"
   inkscape:version="1.2.2 (732a01da63, 2022-12-09)"
   sodipodi:docname="toocrowdedhackplacedarkmode.svg"
   xmlns:inkscape="http://www.inkscape.org/namespaces/inkscape"
   xmlns:sodipodi="http://sodipodi.sourceforge.net/DTD/sodipodi-0.dtd"
   xmlns="http://www.w3.org/2000/svg"
   xmlns:svg="http://www.w3.org/2000/svg">
  <sodipodi:namedview
     id="namedview727"
     pagecolor="#ffffff"
     bordercolor="#000000"
     borderopacity="0.25"
     inkscape:showpageshadow="2"
     inkscape:pageopacity="0.0"
     inkscape:pagecheckerboard="0"
     inkscape:deskcolor="#d1d1d1"
     inkscape:document-units="mm"
     showgrid="false"
     inkscape:zoom="0.25"
     inkscape:cx="1344"
     inkscape:cy="228"
     inkscape:window-width="1920"
     inkscape:window-height="1046"
     inkscape:window-x="-11"
     inkscape:window-y="-11"
     inkscape:window-maximized="1"
     inkscape:current-layer="layer1" />
  <defs
     id="defs722" />
  <g
     inkscape:label="Layer 1"
     inkscape:groupmode="layer"
     id="layer1">
    <path
       id="text121"
       style="font-style:normal;font-variant:normal;font-weight:normal;font-stretch:normal;font-size:105.833px;font-family:Satoshi;-inkscape-font-specification:Satoshi;white-space:pre;inline-size:71.3551;fill:#ffffff;fill-opacity:1;stroke-width:0.264583"
       d="m 0.00654476,17.773406 v 72.965542 h 0.004 l 16.25120424,-4.091712 0.0429,0.0109 v -24.91734 c 0,-0.60871 0.0358,-1.19713 0.10542,-1.76424 v -24.53963 h 5.1e-4 V 17.773406 Z M 32.603519,36.128866 c -5.54805,0 -10.54514,1.72159 -13.99243,4.77491 v 13.61364 c 1.84148,-2.27299 4.70191,-3.57188 8.27702,-3.57188 5.60912,0 9.31364,4.33963 9.31364,11.00708 v 24.70547 l 0.0491,-0.0124 16.24914,4.093272 V 58.036576 c 0,-13.86407 -7.30238,-21.90771 -19.89646,-21.90771 z" />
    <rect
       style="fill:#ffffff;fill-opacity:1;stroke-width:0.277122"
       id="rect753"
       width="3.1805072"
       height="32.736172"
       x="6.5830922"
       y="80.207855" />
    <rect
       style="fill:#ffffff;fill-opacity:1;stroke-width:0.151742"
       id="rect753-8"
       width="3.1805072"
       height="9.8151722"
       x="6.64364"
       y="12.660603" />
    <rect
       style="fill:#ffffff;fill-opacity:1;stroke-width:0.21817"
       id="rect753-2"
       width="3.1805072"
       height="20.289495"
       x="42.759254"
       y="79.907623" />
    <rect
       style="fill:#ffffff;fill-opacity:1;stroke-width:0.166376"
       id="rect753-2-6"
       width="3.1805072"
       height="11.799547"
       x="97.016907"
       y="-54.552029"
       transform="rotate(89.997872)" />
    <path
       id="path821"
       style="fill:#ffffff;fill-opacity:1;stroke-width:0.264583"
       d="M 8.3001002,0.0065375 A 7.1437497,6.9783854 0 0 0 1.1563541,6.984916 7.1437497,6.9783854 0 0 0 8.3001002,13.963306 7.1437497,6.9783854 0 0 0 15.443849,6.984916 7.1437497,6.9783854 0 0 0 8.3001002,0.0065375 Z m 0.001,2.0014188 a 5.1559324,4.9905686 0 0 1 5.1562688,4.9909097 5.1559324,4.9905686 0 0 1 -5.1562688,4.9904 5.1559324,4.9905686 0 0 1 -5.1557573,-4.9904 5.1559324,4.9905686 0 0 1 5.1557573,-4.9909097 z" />
    <path
       id="path821-6"
       style="fill:#ffffff;fill-opacity:1;stroke-width:0.264583"
       d="m 320.77409,17.14551 a 7.1437497,6.9783854 0 0 0 -7.14375,6.97838 7.1437497,6.9783854 0 0 0 7.14375,6.97839 7.1437497,6.9783854 0 0 0 7.14375,-6.97839 7.1437497,6.9783854 0 0 0 -7.14375,-6.97838 z m 10e-4,2.00142 a 5.1559324,4.9905686 0 0 1 5.15627,4.99091 5.1559324,4.9905686 0 0 1 -5.15627,4.9904 5.1559324,4.9905686 0 0 1 -5.15576,-4.9904 5.1559324,4.9905686 0 0 1 5.15576,-4.99091 z" />
    <ellipse
       style="fill:#ffffff;fill-opacity:1;stroke-width:0.264583"
       id="path821-4"
       cx="8.1015844"
       cy="110.17509"
       rx="7.1437497"
       ry="6.9783854" />
    <ellipse
       style="fill:#ffffff;fill-opacity:1;stroke-width:0.264583"
       id="path821-4-9"
       cx="58.769295"
       cy="98.233025"
       rx="7.1437497"
       ry="6.9783854" />
    <ellipse
       style="fill:#ffffff;fill-opacity:1;stroke-width:0.264583"
       id="path821-4-9-0"
       cx="84.543938"
       cy="105.62123"
       rx="7.1437497"
       ry="6.9783854" />
    <path
       style="font-style:normal;font-variant:normal;font-weight:normal;font-stretch:normal;font-size:105.833px;font-family:Satoshi;-inkscape-font-specification:Satoshi;fill:#ffffff;fill-opacity:1;stroke-width:0.264583"
       d="m 254.88353,72.866656 c -5.36805,0.03372 -9.67331,4.359988 -9.67331,9.630937 0,5.185787 4.3394,9.524986 9.73688,9.524986 5.18576,0 9.73635,-4.339199 9.73635,-9.524986 0,-5.29162 -4.55059,-9.630937 -9.73635,-9.630937 -0.0211,0 -0.0425,-1.32e-4 -0.0636,0 z"
       id="path14049" />
    <path
       style="font-style:normal;font-variant:normal;font-weight:normal;font-stretch:normal;font-size:105.833px;font-family:Satoshi;-inkscape-font-specification:Satoshi;fill:#ffffff;fill-opacity:1;stroke-width:0.264583"
       d="m 517.83596,36.036863 c -15.98072,0 -27.09344,11.535982 -27.09344,28.045834 0,16.29818 11.43007,27.939882 27.41073,27.939882 14.49906,0 24.97657,-7.514468 26.88157,-19.261859 h -14.92209 c -1.16416,3.809964 -5.50336,6.032706 -11.64167,6.032706 -7.19658,0 -11.11245,-3.281104 -12.06489,-10.26604 l 38.41729,-0.211873 v -4.127397 c 0,-17.250671 -10.37184,-28.151253 -26.9875,-28.151253 z m 0.10594,13.229167 c 6.56158,0 10.68927,3.598071 10.68927,9.20719 h -22.01365 c 1.27,-6.349944 4.86857,-9.20719 11.32438,-9.20719 z"
       id="path14047" />
    <path
       style="font-style:normal;font-variant:normal;font-weight:normal;font-stretch:normal;font-size:105.833px;font-family:Satoshi;-inkscape-font-specification:Satoshi;fill:#ffffff;fill-opacity:1;stroke-width:0.264583"
       d="m 457.6169,36.036863 c -15.87489,0 -27.09292,11.641711 -27.09292,27.939897 0,16.933178 10.7946,28.045819 27.51615,28.045819 14.8165,0 25.61187,-9.101985 26.6702,-22.436859 h -16.40416 c -1.05833,5.185787 -4.55112,7.831563 -10.26604,7.831563 -6.98498,0 -11.1125,-4.973937 -11.1125,-13.440523 0,-8.149093 4.44528,-13.335104 11.32437,-13.335104 5.60909,0 8.89,2.539944 10.05417,7.831564 h 16.40416 C 483.652,44.609181 473.28006,36.036863 457.6169,36.036863 Z"
       id="path14045" />
    <path
       style="font-style:normal;font-variant:normal;font-weight:normal;font-stretch:normal;font-size:105.833px;font-family:Satoshi;-inkscape-font-specification:Satoshi;fill:#ffffff;fill-opacity:1;stroke-width:0.264583"
       d="m 397.53839,36.036863 c -15.03364,0.06089 -24.79952,7.878182 -24.79952,19.790523 h 13.54698 c 0,-4.762455 3.70424,-7.408333 10.58333,-7.408333 5.82081,0 8.99532,2.751713 8.99532,7.9375 v 0.846977 l -14.81615,1.163753 c -12.6999,0.952491 -19.57917,6.985401 -19.57917,16.721977 0,10.371568 6.98479,16.933319 18.20303,16.933319 7.93741,0 14.92271,-3.492939 16.61604,-8.361233 l 0.48627,3.209624 14.96498,3.773928 V 59.743426 c 0,-15.134023 -8.67814,-23.706563 -24.02386,-23.706563 -0.0591,0 -0.11829,-2.39e-4 -0.17725,0 z m 8.43205,31.961357 v 2.857706 c 0,6.032445 -4.3392,9.101254 -10.58334,9.101254 -4.97409,0 -7.30239,-1.798996 -7.30239,-5.60896 0,-3.386638 2.54018,-4.973968 9.63093,-5.60896 z"
       id="path14043" />
    <path
       style="font-style:normal;font-variant:normal;font-weight:normal;font-stretch:normal;font-size:105.833px;font-family:Satoshi;-inkscape-font-specification:Satoshi;fill:#ffffff;fill-opacity:1;stroke-width:0.264583"
       d="m 310.72095,36.036863 c -7.51408,0 -14.18193,3.280569 -17.1452,8.148857 l -0.84646,-6.455937 h -15.34584 v 78.316657 h 0.0119 l 16.24345,-4.09536 0.0429,0.0109 V 85.354783 c 3.06916,4.021651 9.84279,6.773216 17.14521,6.773216 15.769,0 24.87083,-12.064825 24.87083,-28.786343 0,-17.039006 -10.26605,-27.304793 -24.97677,-27.304793 z m -4.11086,14.922087 c 0.0297,-1.62e-4 0.0596,0 0.0894,0 7.72575,0 12.59407,5.397572 12.59407,13.229166 0,7.8316 -4.86832,13.229167 -12.59407,13.229167 -7.61992,0 -12.91187,-5.291734 -12.91187,-13.229167 0,-7.906421 5.25048,-13.188027 12.82247,-13.229166 z"
       id="path14041" />
    <path
       style="font-style:normal;font-variant:normal;font-weight:normal;font-stretch:normal;font-size:105.833px;font-family:Satoshi;-inkscape-font-specification:Satoshi;fill:#ffffff;fill-opacity:1;stroke-width:0.264583"
       d="m 148.2673,36.036863 c -15.87483,0 -27.09343,11.641711 -27.09343,27.939897 0,16.933178 10.79517,28.045819 27.51666,28.045819 14.81656,0 25.61136,-9.101985 26.66969,-22.436859 h -16.40416 c -1.05833,5.185787 -4.55055,7.831563 -10.26553,7.831563 -6.98492,0 -11.1125,-4.973937 -11.1125,-13.440523 0,-8.149093 4.44477,-13.335104 11.32386,-13.335104 5.60909,0 8.89,2.539944 10.05417,7.831564 h 16.40416 C 174.30189,44.609181 163.93052,36.036863 148.2673,36.036863 Z"
       id="path14039" />
    <path
       style="font-style:normal;font-variant:normal;font-weight:normal;font-stretch:normal;font-size:105.833px;font-family:Satoshi;-inkscape-font-specification:Satoshi;fill:#ffffff;fill-opacity:1;stroke-width:0.264583"
       d="m 88.188869,36.036863 c -15.033616,0.06089 -24.79947,7.878182 -24.79947,19.790523 h 13.546463 c 0,-4.762455 3.704229,-7.408333 10.58328,-7.408333 5.820777,0 8.995789,2.751713 8.995789,7.9375 v 0.846977 l -14.816586,1.163753 c -12.699873,0.952491 -19.579153,6.985401 -19.579153,16.721977 0,10.371568 6.985324,16.933319 18.203532,16.933319 7.937375,0 14.922113,-3.492939 16.615434,-8.361233 l 0.483167,3.18792 14.968585,3.774952 V 59.743426 c 0,-15.134023 -8.67866,-23.706563 -24.024314,-23.706563 -0.0591,0 -0.117777,-2.39e-4 -0.176727,0 z m 8.431992,31.961357 v 2.857706 c 0,6.032445 -4.339216,9.101254 -10.58327,9.101254 -4.974123,0 -7.302358,-1.798996 -7.302358,-5.60896 0,-3.386638 2.539655,-4.973968 9.630363,-5.60896 z"
       id="path14037" />
    <path
       style="font-style:normal;font-variant:normal;font-weight:normal;font-stretch:normal;font-size:105.833px;font-family:Satoshi;-inkscape-font-specification:Satoshi;fill:#ffffff;fill-opacity:1;stroke-width:0.264583"
       d="m 345.11679,10.84822 v 75.714241 l 0.0527,-0.01344 16.24552,4.096907 V 10.84822 Z"
       id="path14035" />
    <path
       style="font-style:normal;font-variant:normal;font-weight:normal;font-stretch:normal;font-size:105.833px;font-family:Satoshi;-inkscape-font-specification:Satoshi;fill:#ffffff;fill-opacity:1;stroke-width:0.264583"
       d="m 571.9169,6.82676 c -13.12323,13.652373 -19.36781,33.972364 -19.36781,53.128023 0,21.695633 7.72624,41.063627 19.36781,53.128527 h 12.48812 c -10.4774,-14.075734 -15.34583,-34.290367 -15.34583,-53.128527 0,-21.37814 6.13842,-40.74564 15.34583,-53.128023 z m 12.48812,0 c 9.20741,12.382383 15.34584,31.749883 15.34584,53.128023 0,18.83816 -4.86843,39.052793 -15.34584,53.128527 h 12.48813 c 11.64157,-12.0649 19.36781,-31.432894 19.36781,-53.128527 0,-19.155659 -6.24458,-39.47565 -19.36781,-53.128023 z"
       id="text1080" />
    <rect
       style="fill:#ffffff;fill-opacity:1;stroke-width:0.21817"
       id="rect753-2-2"
       width="3.1805072"
       height="20.289495"
       x="-106.91657"
       y="85.302078"
       transform="rotate(-90.000903)" />
    <rect
       style="fill:#ffffff;fill-opacity:1;stroke-width:0.247696"
       id="rect753-2-6-8"
       width="3.1805072"
       height="26.152988"
       x="102.40916"
       y="80.777206"
       transform="matrix(0.99999999,-1.172676e-4,2.387075e-5,1,0,0)" />
    <ellipse
       style="fill:#ffffff;fill-opacity:1;stroke-width:0.264583"
       id="path821-4-9-0-1"
       cx="315.23358"
       cy="102.85641"
       rx="7.1437497"
       ry="6.9783854" />
    <rect
       style="fill:#ffffff;fill-opacity:1;stroke-width:0.294452"
       id="rect753-2-2-0"
       width="3.1805072"
       height="36.958202"
       x="-104.1529"
       y="316.78461"
       transform="matrix(-2.8708119e-5,-1,1,-8.6521792e-6,0,0)" />
    <rect
       style="fill:#ffffff;fill-opacity:1;stroke-width:0.247696"
       id="rect753-2-6-8-9"
       width="3.1805072"
       height="26.152988"
       x="352.14938"
       y="78.041763"
       transform="matrix(0.99999999,-1.172676e-4,2.387075e-5,1,0,0)" />
    <rect
       style="fill:#ffffff;fill-opacity:1;stroke-width:0.247696"
       id="rect753-2-6-8-5"
       width="3.1805072"
       height="26.152988"
       x="412.15942"
       y="81.940865"
       transform="matrix(0.99999999,-1.172676e-4,2.387075e-5,1,0,0)" />
    <rect
       style="fill:#ffffff;fill-opacity:1;stroke-width:0.271417"
       id="rect753-2-2-5-0"
       width="3.1805072"
       height="31.401842"
       x="22.571676"
       y="-314.96561"
       transform="matrix(-1.3657409e-4,0.99999999,-1,-5.7016501e-5,0,0)" />
    <rect
       style="fill:#ffffff;fill-opacity:1;stroke-width:0.247696"
       id="rect753-2-6-8-5-0"
       width="3.1805072"
       height="26.152988"
       x="-286.74377"
       y="-48.74173"
       transform="matrix(-1,1.3263543e-5,8.0133309e-5,-1,0,0)" />
    <ellipse
       style="fill:#ffffff;fill-opacity:1;stroke-width:0.264583"
       id="path821-4-9-0-6"
       cx="393.36829"
       cy="106.11795"
       rx="7.1437497"
       ry="6.9783854" />
    <rect
       style="fill:#ffffff;fill-opacity:1;stroke-width:0.21817"
       id="rect753-2-2-6"
       width="3.1805072"
       height="20.289495"
       x="-108.05331"
       y="395.05142"
       transform="rotate(-90.000903)" />
    <path
       id="text121-4"
       style="font-style:normal;font-variant:normal;font-weight:normal;font-stretch:normal;font-size:105.833px;font-family:Satoshi;-inkscape-font-specification:Satoshi;white-space:pre;inline-size:71.3551;fill:#ffffff;fill-opacity:1;stroke-width:0.264583"
       d="m 0.00655076,17.77332 v 72.96554 h 0.004 l 16.25120424,-4.09171 0.0429,0.0109 V 61.74071 c 0,-0.60871 0.0358,-1.19713 0.10542,-1.76424 V 35.43684 h 5.1e-4 V 17.77332 Z M 32.603525,36.12878 c -5.54805,0 -10.54514,1.72159 -13.99243,4.77491 v 13.61364 c 1.84148,-2.27299 4.70191,-3.57188 8.27702,-3.57188 5.60912,0 9.31364,4.33963 9.31364,11.00708 V 86.658 l 0.0491,-0.0124 16.24914,4.09327 V 58.03649 c 0,-13.86407 -7.30238,-21.90771 -19.89646,-21.90771 z" />
    <rect
       style="fill:#ffffff;fill-opacity:1;stroke-width:0.277122"
       id="rect753-82"
       width="3.1805072"
       height="32.736172"
       x="6.5830941"
       y="80.207764" />
    <rect
       style="fill:#ffffff;fill-opacity:1;stroke-width:0.151742"
       id="rect753-8-15"
       width="3.1805072"
       height="9.8151722"
       x="6.643641"
       y="12.660503" />
    <rect
       style="fill:#ffffff;fill-opacity:1;stroke-width:0.21817"
       id="rect753-2-7"
       width="3.1805072"
       height="20.289495"
       x="42.759262"
       y="79.907532" />
    <rect
       style="fill:#ffffff;fill-opacity:1;stroke-width:0.166376"
       id="rect753-2-6-9"
       width="3.1805072"
       height="11.799547"
       x="97.016808"
       y="-54.552036"
       transform="rotate(89.997872)" />
    <path
       id="path821-96"
       style="fill:#ffffff;fill-opacity:1;stroke-width:0.264583"
       d="M 8.3001062,0.00645 A 7.1437497,6.9783854 0 0 0 1.1563601,6.98483 7.1437497,6.9783854 0 0 0 8.3001062,13.96322 7.1437497,6.9783854 0 0 0 15.443855,6.98483 7.1437497,6.9783854 0 0 0 8.3001062,0.00645 Z m 10e-4,2.00142 A 5.1559324,4.9905686 0 0 1 13.457375,6.99878 5.1559324,4.9905686 0 0 1 8.3011062,11.98918 5.1559324,4.9905686 0 0 1 3.1453489,6.99878 5.1559324,4.9905686 0 0 1 8.3011062,2.00787 Z" />
    <rect
       style="fill:#ffffff;fill-opacity:1;stroke-width:0.151742"
       id="rect753-8-1"
       width="3.1805072"
       height="9.8151722"
       x="190.7935"
       y="12.654064" />
    <path
       id="path821-9"
       style="fill:#ffffff;fill-opacity:1;stroke-width:0.264583"
       d="m 192.45141,0 a 7.1437497,6.9783854 0 0 0 -7.14379,6.97838 7.1437497,6.9783854 0 0 0 7.14379,6.97839 A 7.1437497,6.9783854 0 0 0 199.5952,6.97838 7.1437497,6.9783854 0 0 0 192.45141,0 Z m 10e-4,2.00142 a 5.1559324,4.9905686 0 0 1 5.1563,4.99091 5.1559324,4.9905686 0 0 1 -5.1563,4.9904 5.1559324,4.9905686 0 0 1 -5.15579,-4.9904 5.1559324,4.9905686 0 0 1 5.15579,-4.99091 z" />
    <path
       id="path821-9-3"
       style="fill:#ffffff;fill-opacity:1;stroke-width:0.264583"
       d="m 148.99285,57.27823 a 7.1437497,6.9783854 0 0 0 -7.14379,6.97838 7.1437497,6.9783854 0 0 0 7.14379,6.97839 7.1437497,6.9783854 0 0 0 7.14379,-6.97839 7.1437497,6.9783854 0 0 0 -7.14379,-6.97838 z m 0.001,2.00142 a 5.1559324,4.9905686 0 0 1 5.1563,4.99091 5.1559324,4.9905686 0 0 1 -5.1563,4.9904 5.1559324,4.9905686 0 0 1 -5.15579,-4.9904 5.1559324,4.9905686 0 0 1 5.15579,-4.99091 z" />
    <path
       id="path821-6-3"
       style="fill:#ffffff;fill-opacity:1;stroke-width:0.264583"
       d="m 320.7741,17.14543 a 7.1437497,6.9783854 0 0 0 -7.14375,6.97838 7.1437497,6.9783854 0 0 0 7.14375,6.97839 7.1437497,6.9783854 0 0 0 7.14375,-6.97839 7.1437497,6.9783854 0 0 0 -7.14375,-6.97838 z m 0.001,2.00142 a 5.1559324,4.9905686 0 0 1 5.15627,4.99091 5.1559324,4.9905686 0 0 1 -5.15627,4.9904 5.1559324,4.9905686 0 0 1 -5.15576,-4.9904 5.1559324,4.9905686 0 0 1 5.15576,-4.99091 z" />
    <ellipse
       style="fill:#ffffff;fill-opacity:1;stroke-width:0.264583"
       id="path821-4-7"
       cx="8.1015882"
       cy="110.17501"
       rx="7.1437497"
       ry="6.9783854" />
    <ellipse
       style="fill:#ffffff;fill-opacity:1;stroke-width:0.264583"
       id="path821-4-9-09"
       cx="58.76931"
       cy="98.232941"
       rx="7.1437497"
       ry="6.9783854" />
    <ellipse
       style="fill:#ffffff;fill-opacity:1;stroke-width:0.264583"
       id="path821-4-9-0-9"
       cx="84.543968"
       cy="105.62115"
       rx="7.1437497"
       ry="6.9783854" />
    <path
       style="font-style:normal;font-variant:normal;font-weight:normal;font-stretch:normal;font-size:105.833px;font-family:Satoshi;-inkscape-font-specification:Satoshi;fill:#ffffff;fill-opacity:1;stroke-width:0.264583"
       d="m 254.88354,72.86657 c -5.36805,0.0337 -9.67332,4.35999 -9.67332,9.63094 0,5.18578 4.33941,9.52498 9.73689,9.52498 5.18576,0 9.73635,-4.3392 9.73635,-9.52498 0,-5.29162 -4.55059,-9.63094 -9.73635,-9.63094 -0.0211,0 -0.0425,-1.3e-4 -0.0636,0 z"
       id="path1683" />
    <path
       style="font-style:normal;font-variant:normal;font-weight:normal;font-stretch:normal;font-size:105.833px;font-family:Satoshi;-inkscape-font-specification:Satoshi;fill:#ffffff;fill-opacity:1;stroke-width:0.264583"
       d="m 517.83597,36.03678 c -15.98072,0 -27.09344,11.53598 -27.09344,28.04583 0,16.29818 11.43007,27.93988 27.41073,27.93988 14.49906,0 24.97657,-7.51447 26.88157,-19.26186 h -14.92209 c -1.16416,3.80997 -5.50336,6.03271 -11.64167,6.03271 -7.19658,0 -11.11245,-3.28111 -12.06489,-10.26604 l 38.41729,-0.21187 v -4.1274 c 0,-17.25067 -10.37184,-28.15125 -26.9875,-28.15125 z m 0.10594,13.22917 c 6.56158,0 10.68927,3.59807 10.68927,9.20718 h -22.01365 c 1.27,-6.34994 4.86857,-9.20718 11.32438,-9.20718 z"
       id="path1681" />
    <path
       style="font-style:normal;font-variant:normal;font-weight:normal;font-stretch:normal;font-size:105.833px;font-family:Satoshi;-inkscape-font-specification:Satoshi;fill:#ffffff;fill-opacity:1;stroke-width:0.264583"
       d="m 457.61691,36.03678 c -15.87489,0 -27.09292,11.64171 -27.09292,27.93989 0,16.93318 10.7946,28.04582 27.51615,28.04582 14.8165,0 25.61187,-9.10198 26.6702,-22.43686 h -16.40416 c -1.05833,5.18579 -4.55112,7.83157 -10.26604,7.83157 -6.98498,0 -11.1125,-4.97394 -11.1125,-13.44053 0,-8.14909 4.44528,-13.3351 11.32437,-13.3351 5.60909,0 8.89,2.53994 10.05417,7.83156 h 16.40416 C 483.65201,44.6091 473.28007,36.03678 457.61691,36.03678 Z"
       id="path1679" />
    <path
       style="font-style:normal;font-variant:normal;font-weight:normal;font-stretch:normal;font-size:105.833px;font-family:Satoshi;-inkscape-font-specification:Satoshi;fill:#ffffff;fill-opacity:1;stroke-width:0.264583"
       d="m 397.5384,36.03678 c -15.03364,0.0609 -24.79952,7.87818 -24.79952,19.79052 h 13.54698 c 0,-4.76245 3.70424,-7.40833 10.58333,-7.40833 5.82081,0 8.99532,2.75171 8.99532,7.9375 v 0.84697 l -14.81615,1.16376 c -12.6999,0.95249 -19.57917,6.9854 -19.57917,16.72197 0,10.37157 6.98479,16.93332 18.20303,16.93332 7.93741,0 14.92271,-3.49294 16.61604,-8.36123 l 0.48627,3.20962 14.96498,3.77393 V 59.74334 c 0,-15.13402 -8.67814,-23.70656 -24.02386,-23.70656 -0.0591,0 -0.11829,-2.4e-4 -0.17725,0 z m 8.43205,31.96135 v 2.85771 c 0,6.03244 -4.3392,9.10125 -10.58334,9.10125 -4.97409,0 -7.30239,-1.79899 -7.30239,-5.60896 0,-3.38664 2.54018,-4.97397 9.63093,-5.60896 z"
       id="path1677" />
    <path
       style="font-style:normal;font-variant:normal;font-weight:normal;font-stretch:normal;font-size:105.833px;font-family:Satoshi;-inkscape-font-specification:Satoshi;fill:#ffffff;fill-opacity:1;stroke-width:0.264583"
       d="m 310.72096,36.03678 c -7.51408,0 -14.18193,3.28057 -17.1452,8.14886 L 292.7293,37.7297 h -15.34584 v 78.31665 h 0.0119 l 16.24345,-4.09536 0.0429,0.0109 V 85.3547 c 3.06916,4.02165 9.84279,6.773208 17.14521,6.773208 15.769,0 24.87083,-12.064818 24.87083,-28.786338 0,-17.039 -10.26605,-27.30479 -24.97677,-27.30479 z m -4.11086,14.92209 c 0.0297,-1.7e-4 0.0596,0 0.0894,0 7.72575,0 12.59407,5.39756 12.59407,13.22916 0,7.8316 -4.86832,13.22917 -12.59407,13.22917 -7.61992,0 -12.91187,-5.29174 -12.91187,-13.22917 0,-7.90642 5.25048,-13.18803 12.82247,-13.22916 z"
       id="path1675" />
    <path
       style="font-style:normal;font-variant:normal;font-weight:normal;font-stretch:normal;font-size:105.833px;font-family:Satoshi;-inkscape-font-specification:Satoshi;fill:#ffffff;fill-opacity:1;stroke-width:0.264583"
       d="m 148.2673,36.03678 c -15.87483,0 -27.09343,11.64171 -27.09343,27.93989 0,16.93318 10.79517,28.04582 27.51666,28.04582 14.81656,0 25.61136,-9.10198 26.66969,-22.43686 h -16.40416 c -1.05833,5.18579 -4.55055,7.83157 -10.26553,7.83157 -6.98492,0 -11.1125,-4.97394 -11.1125,-13.44053 0,-8.14909 4.44477,-13.3351 11.32386,-13.3351 5.60909,0 8.89,2.53994 10.05417,7.83156 h 16.40416 C 174.30189,44.6091 163.93052,36.03678 148.2673,36.03678 Z"
       id="path1673" />
    <path
       style="font-style:normal;font-variant:normal;font-weight:normal;font-stretch:normal;font-size:105.833px;font-family:Satoshi;-inkscape-font-specification:Satoshi;fill:#ffffff;fill-opacity:1;stroke-width:0.264583"
       d="M 88.188879,36.03678 C 73.155265,36.09768 63.389405,43.91496 63.389405,55.8273 h 13.546467 c 0,-4.76245 3.704229,-7.40833 10.58328,-7.40833 5.820777,0 8.995789,2.75171 8.995789,7.9375 v 0.84697 L 81.698355,58.3672 c -12.69988,0.95249 -19.57916,6.9854 -19.57916,16.72197 0,10.37157 6.98533,16.93332 18.203539,16.93332 7.937375,0 14.922113,-3.49294 16.615434,-8.36123 l 0.483167,3.18792 14.968585,3.77495 V 59.74334 c 0,-15.13402 -8.67866,-23.70656 -24.024314,-23.70656 -0.0591,0 -0.117777,-2.4e-4 -0.176727,0 z m 8.431992,31.96135 v 2.85771 c 0,6.03244 -4.339216,9.10125 -10.58327,9.10125 -4.974123,0 -7.302358,-1.79899 -7.302358,-5.60896 0,-3.38664 2.539655,-4.97397 9.630363,-5.60896 z"
       id="path1671" />
    <path
       style="font-style:normal;font-variant:normal;font-weight:normal;font-stretch:normal;font-size:105.833px;font-family:Satoshi;-inkscape-font-specification:Satoshi;fill:#ffffff;fill-opacity:1;stroke-width:0.264583"
       d="m 345.1168,10.84814 v 75.71423 l 0.0527,-0.0134 16.24552,4.09691 v -79.7977 z"
       id="path1669" />
    <path
       id="path1667"
       style="font-style:normal;font-variant:normal;font-weight:normal;font-stretch:normal;font-size:105.833px;font-family:Satoshi;-inkscape-font-specification:Satoshi;fill:#ffffff;fill-opacity:1;stroke-width:0.264583"
       d="m 184.2501,17.80172 v 72.84464 h 0.004 l 16.25638,-4.09897 0.0382,0.01 v -9.14001 l 6.24406,-6.56136 9.42681,15.73909 0.19431,-0.0377 21.01835,4.08916 h 0.0522 L 218.22253,58.68521 238.11899,37.7299 h -20.42562 l -17.14469,19.05 V 17.80194 Z" />
    <rect
       style="fill:#ffffff;fill-opacity:1;stroke-width:0.21817"
       id="rect753-2-2-66"
       width="3.1805072"
       height="20.289495"
       x="-106.9165"
       y="85.302078"
       transform="rotate(-90.000903)" />
    <rect
       style="fill:#ffffff;fill-opacity:1;stroke-width:0.247696"
       id="rect753-2-6-8-3"
       width="3.1805072"
       height="26.152988"
       x="102.40916"
       y="80.777115"
       transform="matrix(0.99999999,-1.172676e-4,2.387075e-5,1,0,0)" />
    <rect
       style="fill:#ffffff;fill-opacity:1;stroke-width:0.156639"
       id="rect753-2-6-8-1"
       width="3.1805072"
       height="10.458889"
       x="147.35611"
       y="48.158409"
       transform="matrix(1,-4.689677e-5,5.8905313e-5,1,0,0)" />
    <rect
       style="fill:#ffffff;fill-opacity:1;stroke-width:0.165826"
       id="rect753-2-6-8-1-7"
       width="3.1805072"
       height="11.72172"
       x="147.35922"
       y="69.965927"
       transform="rotate(-0.00301142)" />
    <path
       id="path821-9-3-5"
       style="fill:#ffffff;fill-opacity:1;stroke-width:0.264583"
       d="m 458.07693,57.30304 a 7.1437497,6.9783854 0 0 0 -7.14379,6.97838 7.1437497,6.9783854 0 0 0 7.14379,6.97839 7.1437497,6.9783854 0 0 0 7.14379,-6.97839 7.1437497,6.9783854 0 0 0 -7.14379,-6.97838 z m 10e-4,2.00142 a 5.1559324,4.9905686 0 0 1 5.1563,4.99091 5.1559324,4.9905686 0 0 1 -5.1563,4.9904 5.1559324,4.9905686 0 0 1 -5.15579,-4.9904 5.1559324,4.9905686 0 0 1 5.15579,-4.99091 z" />
    <rect
       style="fill:#ffffff;fill-opacity:1;stroke-width:0.156639"
       id="rect753-2-6-8-1-4"
       width="3.1805072"
       height="10.458889"
       x="456.43997"
       y="48.198784"
       transform="matrix(1,-4.689677e-5,5.8905313e-5,1,0,0)" />
    <rect
       style="fill:#ffffff;fill-opacity:1;stroke-width:0.165826"
       id="rect753-2-6-8-1-7-2"
       width="3.1805072"
       height="11.72172"
       x="456.44327"
       y="70.00853"
       transform="rotate(-0.00301142)" />
    <ellipse
       style="fill:#ffffff;fill-opacity:1;stroke-width:0.264583"
       id="path821-4-9-0-1-0"
       cx="315.23358"
       cy="102.85633"
       rx="7.1437497"
       ry="6.9783854" />
    <rect
       style="fill:#ffffff;fill-opacity:1;stroke-width:0.294452"
       id="rect753-2-2-0-1"
       width="3.1805072"
       height="36.958202"
       x="-104.15281"
       y="316.78461"
       transform="matrix(-2.8708119e-5,-1,1,-8.6521792e-6,0,0)" />
    <rect
       style="fill:#ffffff;fill-opacity:1;stroke-width:0.247696"
       id="rect753-2-6-8-9-4"
       width="3.1805072"
       height="26.152988"
       x="352.14938"
       y="78.041672"
       transform="matrix(0.99999999,-1.172676e-4,2.387075e-5,1,0,0)" />
    <rect
       style="fill:#ffffff;fill-opacity:1;stroke-width:0.247696"
       id="rect753-2-6-8-5-2"
       width="3.1805072"
       height="26.152988"
       x="412.15942"
       y="81.940765"
       transform="matrix(0.99999999,-1.172676e-4,2.387075e-5,1,0,0)" />
    <rect
       style="fill:#ffffff;fill-opacity:1;stroke-width:0.271417"
       id="rect753-2-2-5-0-8"
       width="3.1805072"
       height="31.401842"
       x="22.571581"
       y="-314.96564"
       transform="matrix(-1.3657409e-4,0.99999999,-1,-5.7016501e-5,0,0)" />
    <rect
       style="fill:#ffffff;fill-opacity:1;stroke-width:0.247696"
       id="rect753-2-6-8-5-0-1"
       width="3.1805072"
       height="26.152988"
       x="-286.74377"
       y="-48.741642"
       transform="matrix(-1,1.3263543e-5,8.0133309e-5,-1,0,0)" />
    <ellipse
       style="fill:#ffffff;fill-opacity:1;stroke-width:0.264583"
       id="path821-4-9-0-6-7"
       cx="393.36829"
       cy="106.11785"
       rx="7.1437497"
       ry="6.9783854" />
    <rect
       style="fill:#ffffff;fill-opacity:1;stroke-width:0.21817"
       id="rect753-2-2-6-6"
       width="3.1805072"
       height="20.289495"
       x="-108.05322"
       y="395.05142"
       transform="rotate(-90.000903)" />
  </g>
</svg>
